# Blender 4.2.2 LTS
# www.blender.org
mtllib LightWoodObjects.mtl
o LightWoodObjects
v 0.397051 1.592548 -1.924425
v 0.347051 1.618818 -1.896425
v 0.447051 1.838818 -1.896425
v 0.399002 1.592548 -1.924617
v 0.347051 1.838818 -1.896425
v 0.447051 1.618818 -1.896425
v 0.400878 1.592548 -1.925186
v 0.347051 1.878818 -1.950425
v 0.347051 1.847719 -1.897779
v 0.402607 1.592548 -1.926110
v 0.347051 1.856174 -1.901773
v 0.404123 1.592548 -1.927354
v 0.347051 1.863758 -1.908206
v 0.347051 1.870091 -1.916757
v 0.347051 1.874857 -1.926995
v 0.405366 1.592548 -1.928869
v 0.347051 1.877815 -1.938409
v 0.406290 1.592548 -1.930598
v 0.447051 1.578818 -1.950425
v 0.447051 1.609917 -1.897779
v 0.406859 1.592548 -1.932474
v 0.447051 1.601463 -1.901773
v 0.407051 1.592548 -1.934425
v 0.447051 1.593879 -1.908206
v 0.447051 1.587545 -1.916757
v 0.406859 1.592548 -1.936376
v 0.447051 1.582779 -1.926995
v 0.447051 1.579821 -1.938409
v 0.347051 1.878818 -1.982425
v 0.406290 1.592548 -1.938252
v 0.347051 1.824818 -2.036425
v 0.347051 1.840634 -1.998241
v 0.405366 1.592548 -1.939981
v 0.347051 1.877464 -1.994441
v 0.347051 1.873471 -2.005855
v 0.404123 1.592548 -1.941496
v 0.347051 1.867037 -2.016093
v 0.347051 1.858487 -2.024644
v 0.402607 1.592548 -1.942740
v 0.347051 1.848248 -2.031077
v 0.400878 1.592548 -1.943664
v 0.347051 1.836834 -2.035071
v 0.347051 1.632818 -2.036425
v 0.347051 1.578818 -1.982425
v 0.399002 1.592548 -1.944233
v 0.347051 1.617002 -1.998241
v 0.397051 1.592548 -1.944425
v 0.347051 1.620802 -2.035071
v 0.347051 1.609388 -2.031077
v 0.395101 1.592548 -1.944233
v 0.347051 1.599150 -2.024644
v 0.347051 1.590599 -2.016093
v 0.347051 1.584166 -2.005855
v 0.393225 1.592548 -1.943664
v 0.347051 1.580172 -1.994441
v 0.391496 1.592548 -1.942740
v 0.347051 1.578818 -1.950425
v 0.347051 1.579821 -1.938409
v 0.389980 1.592548 -1.941496
v 0.347051 1.582779 -1.926995
v 0.347051 1.587545 -1.916757
v 0.388737 1.592548 -1.939981
v 0.347051 1.593879 -1.908206
v 0.387813 1.592548 -1.938252
v 0.347051 1.601463 -1.901773
v 0.347051 1.609917 -1.897779
v 0.447051 1.878818 -1.950425
v 0.387244 1.592548 -1.936376
v 0.447051 1.877815 -1.938409
v 0.387051 1.592548 -1.934425
v 0.447051 1.874857 -1.926995
v 0.447051 1.870091 -1.916757
v 0.387244 1.592548 -1.932474
v 0.447051 1.863758 -1.908206
v 0.447051 1.856174 -1.901773
v 0.387813 1.592548 -1.930598
v 0.447051 1.847719 -1.897779
v 0.447051 1.824818 -2.036425
v 0.388737 1.592548 -1.928869
v 0.447051 1.878818 -1.982425
v 0.447051 1.840634 -1.998241
v 0.389980 1.592548 -1.927354
v 0.447051 1.836834 -2.035071
v 0.447051 1.848248 -2.031077
v 0.391496 1.592548 -1.926110
v 0.447051 1.858487 -2.024644
v 0.447051 1.867037 -2.016093
v 0.393225 1.592548 -1.925186
v 0.447051 1.873471 -2.005855
v 0.447051 1.877464 -1.994441
v 0.395101 1.592548 -1.924617
v 0.447051 1.578818 -1.982425
v 0.447051 1.632818 -2.036425
v 0.447051 1.617002 -1.998241
v 0.447051 1.580172 -1.994441
v 0.447051 1.584166 -2.005855
v 0.447051 1.590599 -2.016093
v 0.447051 1.599150 -2.024644
v 0.447051 1.609388 -2.031077
v 0.447051 1.620802 -2.035071
v 0.347051 1.618818 -1.969425
v 0.347051 1.645818 -1.996425
v 0.347051 1.617016 -1.998227
v 0.347051 1.619495 -1.975433
v 0.347051 1.621492 -1.981140
v 0.347051 1.624709 -1.986259
v 0.347051 1.628984 -1.990534
v 0.347051 1.634103 -1.993751
v 0.347051 1.639810 -1.995748
v 0.347051 1.811818 -1.996425
v 0.347051 1.838818 -1.969425
v 0.347051 1.840620 -1.998227
v 0.347051 1.817826 -1.995748
v 0.347051 1.823533 -1.993751
v 0.347051 1.828652 -1.990534
v 0.347051 1.832928 -1.986259
v 0.347051 1.836144 -1.981140
v 0.347051 1.838141 -1.975433
v 0.447051 1.645818 -1.996425
v 0.447051 1.618818 -1.969425
v 0.447051 1.617016 -1.998227
v 0.447051 1.639810 -1.995748
v 0.447051 1.634103 -1.993751
v 0.447051 1.628984 -1.990534
v 0.447051 1.624709 -1.986259
v 0.447051 1.621492 -1.981140
v 0.447051 1.619495 -1.975433
v 0.447051 1.838818 -1.969425
v 0.447051 1.811818 -1.996425
v 0.447051 1.840620 -1.998227
v 0.447051 1.838141 -1.975433
v 0.447051 1.836144 -1.981140
v 0.447051 1.832928 -1.986259
v 0.447051 1.828652 -1.990534
v 0.447051 1.823533 -1.993751
v 0.447051 1.817826 -1.995748
v 0.391496 1.583191 -1.926110
v 0.390417 1.582779 -1.926995
v 0.395101 1.583886 -1.924617
v 0.393225 1.583622 -1.925186
v 0.400878 1.583622 -1.925186
v 0.399002 1.583886 -1.924617
v 0.403686 1.582779 -1.926995
v 0.402607 1.583191 -1.926110
v 0.397051 1.583976 -1.924425
v 0.387244 1.581359 -1.932474
v 0.388737 1.582294 -1.928869
v 0.387813 1.581846 -1.930598
v 0.404123 1.582686 -1.927354
v 0.406290 1.581846 -1.930598
v 0.405366 1.582294 -1.928869
v 0.389980 1.582686 -1.927354
v 0.387244 1.580348 -1.936376
v 0.387051 1.580854 -1.934425
v 0.387813 1.579862 -1.938252
v 0.387897 1.579821 -1.938409
v 0.407051 1.580854 -1.934425
v 0.406859 1.580348 -1.936376
v 0.406859 1.581359 -1.932474
v 0.406290 1.579862 -1.938252
v 0.406206 1.579821 -1.938409
v 0.388737 1.579690 -1.939981
v 0.393225 1.579383 -1.943664
v 0.391496 1.579460 -1.942740
v 0.395101 1.579335 -1.944233
v 0.389980 1.579563 -1.941496
v 0.400878 1.579383 -1.943664
v 0.404123 1.579563 -1.941496
v 0.405366 1.579690 -1.939981
v 0.402607 1.579460 -1.942740
v 0.397051 1.579319 -1.944425
v 0.399002 1.579335 -1.944233
vn -1.0000 -0.0000 -0.0000
vn -0.0000 -0.0000 1.0000
vn -0.0000 -0.0000 -1.0000
vn -0.0000 1.0000 -0.0000
vn 1.0000 -0.0000 -0.0000
vn -0.0000 -1.0000 -0.0000
vn -0.0000 0.1120 -0.9937
vn -0.0000 0.3303 -0.9439
vn -0.0000 0.5320 -0.8467
vn -0.0000 0.7071 -0.7071
vn -0.0000 0.8467 -0.5320
vn -0.0000 0.9439 -0.3303
vn -0.0000 0.9937 -0.1120
vn -0.0000 0.1504 0.9886
vn -0.0000 0.4271 0.9042
vn -0.0000 0.6469 0.7626
vn -0.0000 0.8036 0.5952
vn -0.0000 0.9066 0.4220
vn -0.0000 0.9680 0.2509
vn -0.0000 0.9965 0.0832
vn -0.0000 -0.1120 -0.9937
vn -0.0000 -0.3303 -0.9439
vn -0.0000 -0.5320 -0.8467
vn -0.0000 -0.7071 -0.7071
vn -0.0000 -0.8467 -0.5320
vn -0.0000 -0.9439 -0.3303
vn -0.0000 -0.9937 -0.1120
vn -0.0000 -0.1504 0.9886
vn -0.0000 -0.4271 0.9042
vn -0.0000 -0.6469 0.7626
vn -0.0000 -0.8036 0.5952
vn -0.0000 -0.9066 0.4220
vn -0.0000 -0.9680 0.2509
vn -0.0000 -0.9965 0.0832
vn -0.0000 -0.1120 0.9937
vn -0.0000 -0.3303 0.9439
vn -0.0000 -0.5320 0.8467
vn -0.0000 -0.7071 0.7071
vn -0.0000 -0.8467 0.5320
vn -0.0000 -0.9439 0.3303
vn -0.0000 -0.9937 0.1120
vn -0.0000 0.9937 0.1120
vn -0.0000 0.9439 0.3303
vn -0.0000 0.8467 0.5320
vn -0.0000 0.7071 0.7071
vn -0.0000 0.5320 0.8467
vn -0.0000 0.3303 0.9439
vn -0.0000 0.1120 0.9937
vn -0.0980 -0.0000 -0.9952
vn -0.2903 -0.0000 -0.9569
vn -0.4714 -0.0000 -0.8819
vn -0.6344 -0.0000 -0.7730
vn -0.7730 -0.0000 -0.6344
vn -0.8819 -0.0000 -0.4714
vn -0.9569 -0.0000 -0.2903
vn -0.9952 -0.0000 -0.0980
vn -0.9952 -0.0000 0.0980
vn -0.9569 -0.0000 0.2903
vn -0.8819 -0.0000 0.4714
vn -0.7730 -0.0000 0.6344
vn -0.6344 -0.0000 0.7730
vn -0.4714 -0.0000 0.8819
vn -0.2903 -0.0000 0.9569
vn -0.0980 -0.0000 0.9952
vn 0.0980 -0.0000 0.9952
vn 0.2903 -0.0000 0.9569
vn 0.4714 -0.0000 0.8819
vn 0.6344 -0.0000 0.7730
vn 0.7730 -0.0000 0.6344
vn 0.8819 -0.0000 0.4714
vn 0.9569 -0.0000 0.2903
vn 0.9952 -0.0000 0.0980
vn 0.9952 -0.0000 -0.0980
vn 0.9569 -0.0000 -0.2903
vn 0.8819 -0.0000 -0.4714
vn 0.7730 -0.0000 -0.6344
vn 0.6344 -0.0000 -0.7730
vn 0.4714 -0.0000 -0.8819
vn 0.2903 -0.0000 -0.9569
vn 0.0980 -0.0000 -0.9952
vn -0.0000 -0.9680 0.2508
vn -0.0000 -0.9965 0.0831
vt 0.446429 0.055833
vt 0.446429 0.194167
vt 0.375000 0.045000
vt 0.588694 0.007272
vt 0.603962 0.012550
vt 0.494643 0.033333
vt 0.446429 0.694167
vt 0.446429 0.555833
vt 0.443185 0.218180
vt 0.443211 0.218168
vt 0.494643 0.216667
vt 0.375000 0.545000
vt 0.125000 0.705000
vt 0.125000 0.545000
vt 0.528571 0.250000
vt 0.471429 0.500000
vt 0.471429 0.250000
vt 0.588694 0.507272
vt 0.603962 0.512550
vt 0.494643 0.533333
vt 0.471429 0.750000
vt 0.443185 0.718180
vt 0.443211 0.718168
vt 0.528571 0.750000
vt 0.471429 1.000000
vt 0.625000 0.533333
vt 0.562143 0.302167
vt 0.423214 0.227500
vt 0.449971 0.248872
vt 0.429590 0.245544
vt 0.403672 0.236620
vt 0.375000 0.224525
vt 0.375000 0.215013
vt 0.375000 0.205000
vt 0.377418 0.034987
vt 0.443185 0.031820
vt 0.384549 0.025475
vt 0.403672 0.013380
vt 0.403672 0.013380
vt 0.407070 0.014966
vt 0.413694 0.018057
vt 0.423214 0.022500
vt 0.377418 0.534987
vt 0.443185 0.531820
vt 0.384549 0.525475
vt 0.403672 0.513380
vt 0.407070 0.514966
vt 0.413694 0.518057
vt 0.423214 0.522500
vt 0.423214 0.727500
vt 0.449971 0.748872
vt 0.429590 0.745544
vt 0.403672 0.736620
vt 0.375000 0.724525
vt 0.375000 0.715013
vt 0.375000 0.705000
vt 0.375000 0.534987
vt 0.125000 0.534987
vt 0.375000 0.525475
vt 0.125000 0.525475
vt 0.375000 0.516943
vt 0.125000 0.516943
vt 0.375000 0.500000
vt 0.375000 0.250000
vt 0.429590 0.500000
vt 0.429590 0.250000
vt 0.449971 0.500000
vt 0.449971 0.250000
vt 0.875000 0.525916
vt 0.875000 0.533333
vt 0.625000 0.525916
vt 0.875000 0.518871
vt 0.625000 0.518871
vt 0.875000 0.500000
vt 0.625000 0.500000
vt 0.588694 0.250000
vt 0.625000 0.250000
vt 0.588694 0.500000
vt 0.570410 0.250000
vt 0.570410 0.500000
vt 0.550029 0.250000
vt 0.550029 0.500000
vt 0.125000 0.715013
vt 0.125000 0.724525
vt 0.125000 0.733057
vt 0.375000 0.733057
vt 0.125000 0.750000
vt 0.375000 0.750000
vt 0.429590 1.000000
vt 0.375000 1.000000
vt 0.429590 0.750000
vt 0.449971 1.000000
vt 0.449971 0.750000
vt 0.875000 0.716667
vt 0.625000 0.724084
vt 0.625000 0.716667
vt 0.875000 0.724084
vt 0.625000 0.731129
vt 0.875000 0.731129
vt 0.625000 0.750000
vt 0.625000 1.000000
vt 0.588694 0.750000
vt 0.588694 1.000000
vt 0.574657 0.879877
vt 0.575000 0.875000
vt 0.570410 1.000000
vt 0.557143 0.900000
vt 0.560627 0.899520
vt 0.560627 0.850480
vt 0.557143 0.850000
vt 0.570410 0.750000
vt 0.528571 1.000000
vt 0.539286 0.875000
vt 0.483914 0.033333
vt 0.443211 0.031832
vt 0.473723 0.033333
vt 0.464582 0.033333
vt 0.456947 0.033333
vt 0.451203 0.033333
vt 0.447637 0.033333
vt 0.446429 0.033333
vt 0.447637 0.199173
vt 0.451203 0.203929
vt 0.446429 0.208195
vt 0.446429 0.211758
vt 0.446429 0.214438
vt 0.446429 0.216103
vt 0.446429 0.216667
vt 0.446429 0.699173
vt 0.446429 0.703929
vt 0.446429 0.708195
vt 0.446429 0.711758
vt 0.446429 0.714438
vt 0.446429 0.716102
vt 0.446429 0.716667
vt 0.483914 0.533333
vt 0.443211 0.531832
vt 0.473723 0.533333
vt 0.464582 0.533333
vt 0.456947 0.533333
vt 0.451203 0.533333
vt 0.447637 0.533333
vt 0.446429 0.533333
vt 0.446429 0.199173
vt 0.446429 0.550827
vt 0.446429 0.203929
vt 0.446429 0.546071
vt 0.446429 0.541805
vt 0.489996 0.248858
vt 0.511936 0.265070
vt 0.536394 0.283141
vt 0.494643 0.716667
vt 0.483914 0.716667
vt 0.473723 0.716667
vt 0.464582 0.716667
vt 0.446429 0.041805
vt 0.446429 0.046071
vt 0.446429 0.050827
vt 0.625000 0.033333
vt 1.000000 0.714316
vt 0.968750 0.500000
vt 0.968750 0.716552
vt 0.937500 0.500000
vt 0.937500 0.723174
vt 0.906250 0.500000
vt 0.906250 0.733926
vt 0.875000 0.746548
vt 0.884012 0.744224
vt 0.843750 0.500000
vt 0.843750 0.756367
vt 0.812500 0.500000
vt 0.812500 0.767570
vt 0.781250 0.500000
vt 0.781250 0.779726
vt 0.750000 0.500000
vt 0.750000 0.792368
vt 0.718750 0.500000
vt 0.718750 0.805009
vt 0.687500 0.500000
vt 0.687500 0.817165
vt 0.656250 0.500000
vt 0.656250 0.821462
vt 0.684661 0.818183
vt 0.625000 0.824624
vt 0.593750 0.500000
vt 0.593750 0.827219
vt 0.562500 0.500000
vt 0.562500 0.829147
vt 0.531250 0.500000
vt 0.531250 0.830335
vt 0.500000 0.500000
vt 0.500000 0.830736
vt 0.468750 0.830335
vt 0.468750 0.500000
vt 0.437500 0.829147
vt 0.437500 0.500000
vt 0.406250 0.827219
vt 0.406250 0.500000
vt 0.375000 0.824624
vt 0.343750 0.821462
vt 0.343750 0.500000
vt 0.312500 0.817165
vt 0.315338 0.818182
vt 0.312500 0.500000
vt 0.281250 0.805009
vt 0.281250 0.500000
vt 0.250000 0.792368
vt 0.250000 0.500000
vt 0.218750 0.779726
vt 0.218750 0.500000
vt 0.187500 0.767570
vt 0.187500 0.500000
vt 0.156250 0.756367
vt 0.156250 0.500000
vt 0.125000 0.746548
vt 0.115988 0.744224
vt 0.125000 0.500000
vt 0.093750 0.733926
vt 0.093750 0.500000
vt 0.062500 0.723173
vt 0.062500 0.500000
vt 0.031250 0.716552
vt 0.031250 0.500000
vt 0.000000 0.714316
vt 0.990000 0.250000
vt 0.750000 0.490000
vt 0.510000 0.250000
vt 0.615451 0.018871
vt 0.622582 0.025916
vt 0.471429 0.000000
vt 0.528571 0.000000
vt 0.550029 0.000836
vt 0.570410 0.003301
vt 0.625000 0.216667
vt 0.603962 0.237450
vt 0.622582 0.224084
vt 0.615451 0.231129
vt 0.588694 0.242728
vt 0.570410 0.246699
vt 0.550029 0.249164
vt 0.528571 0.500000
vt 0.615451 0.518871
vt 0.622582 0.525916
vt 0.550029 0.500836
vt 0.570410 0.503301
vt 0.603962 0.737450
vt 0.615451 0.731129
vt 0.622582 0.724084
vt 0.588694 0.742728
vt 0.570410 0.746699
vt 0.550029 0.749164
vt 0.875000 0.750000
vt 0.571990 0.861111
vt 0.570410 0.858415
vt 0.574657 0.870123
vt 0.570410 0.891585
vt 0.571990 0.888889
vt 0.573641 0.865433
vt 0.573641 0.884567
vt 0.569770 0.892678
vt 0.550029 1.000000
vt 0.550029 0.897887
vt 0.550309 0.898097
vt 0.553659 0.899520
vt 0.567064 0.895787
vt 0.563977 0.898097
vt 0.550309 0.851903
vt 0.550029 0.852113
vt 0.550029 0.750000
vt 0.569770 0.857322
vt 0.567064 0.854213
vt 0.553659 0.850480
vt 0.563977 0.851903
vt 0.547222 0.854213
vt 0.547222 0.895787
vt 0.544516 0.892678
vt 0.544516 0.857322
vt 0.542295 0.861111
vt 0.542295 0.888889
vt 0.540645 0.884567
vt 0.540645 0.865433
vt 0.539629 0.870123
vt 0.539629 0.879877
vt 1.000000 0.500000
vt 0.000000 0.500000
vt 0.514612 0.203178
vt 0.580294 0.080294
vt 0.528269 0.158156
vt 0.550447 0.116663
vt 0.616663 0.050447
vt 0.658156 0.028269
vt 0.703178 0.485388
vt 0.796822 0.485388
vt 0.841844 0.471731
vt 0.883337 0.449553
vt 0.919706 0.419706
vt 0.949553 0.383337
vt 0.971731 0.341844
vt 0.985388 0.296822
s 0
f 102/1/1 110/2/1 43/3/1
f 61/4/1 63/5/1 101/6/1
f 110/2/2 119/7/2 129/8/2
f 32/9/1 112/10/1 111/11/1
f 78/12/3 43/13/3 31/14/3
f 8/15/4 80/16/4 29/17/4
f 72/18/5 74/19/5 128/20/5
f 92/21/5 94/22/5 121/23/5
f 19/24/6 44/25/6 92/21/6
f 3/26/6 111/27/6 128/20/6
f 29/28/1 34/29/1 32/9/1
f 34/29/1 35/30/1 32/9/1
f 35/30/1 37/31/1 32/9/1
f 37/31/1 38/31/1 32/9/1
f 38/31/1 40/32/1 32/9/1
f 40/32/1 42/33/1 32/9/1
f 42/33/1 31/34/1 32/9/1
f 43/3/1 48/35/1 46/36/1
f 48/35/1 49/37/1 46/36/1
f 49/37/1 51/38/1 46/36/1
f 51/38/1 52/39/1 46/36/1
f 52/39/1 53/40/1 46/36/1
f 53/40/1 55/41/1 46/36/1
f 55/41/1 44/42/1 46/36/1
f 78/12/5 83/43/5 81/44/5
f 83/43/5 84/45/5 81/44/5
f 84/45/5 86/46/5 81/44/5
f 86/46/5 87/46/5 81/44/5
f 87/46/5 89/47/5 81/44/5
f 89/47/5 90/48/5 81/44/5
f 90/48/5 80/49/5 81/44/5
f 92/50/5 95/51/5 94/22/5
f 95/51/5 96/52/5 94/22/5
f 96/52/5 97/53/5 94/22/5
f 97/53/5 98/53/5 94/22/5
f 98/53/5 99/54/5 94/22/5
f 99/54/5 100/55/5 94/22/5
f 100/55/5 93/56/5 94/22/5
f 31/14/7 83/57/7 78/12/7
f 42/58/8 84/59/8 83/57/8
f 40/60/9 86/61/9 84/59/9
f 38/62/10 87/63/10 86/61/10
f 37/64/11 89/65/11 87/63/11
f 35/66/12 90/67/12 89/65/12
f 34/68/13 80/16/13 90/67/13
f 3/26/14 9/69/14 5/70/14
f 77/71/15 11/72/15 9/69/15
f 75/73/16 13/74/16 11/72/16
f 74/75/17 14/76/17 13/77/17
f 72/78/18 15/79/18 14/76/18
f 71/80/19 17/81/19 15/79/19
f 69/82/20 8/15/20 17/81/20
f 93/56/21 48/83/21 43/13/21
f 100/55/22 49/84/22 48/83/22
f 99/54/23 51/85/23 49/84/23
f 98/86/24 52/87/24 51/85/24
f 97/88/25 53/89/25 52/90/25
f 96/91/26 55/92/26 53/89/26
f 95/93/27 44/25/27 55/92/27
f 2/94/28 20/95/28 6/96/28
f 66/97/29 22/98/29 20/95/29
f 65/99/30 24/100/30 22/98/30
f 63/101/31 25/102/31 24/100/31
f 61/103/32 139/104/32 145/105/32
f 60/106/33 154/107/33 146/108/33
f 159/109/33 157/110/33 27/111/33
f 57/112/34 19/24/34 171/113/34
f 129/8/5 119/7/5 78/12/5
f 101/6/1 104/114/1 103/115/1
f 104/114/1 105/116/1 103/115/1
f 105/116/1 106/117/1 103/115/1
f 106/117/1 107/118/1 103/115/1
f 107/118/1 108/119/1 103/115/1
f 108/119/1 109/120/1 103/115/1
f 109/120/1 102/121/1 103/115/1
f 110/2/1 113/122/1 112/10/1
f 113/122/1 114/123/1 112/10/1
f 114/123/1 115/124/1 112/10/1
f 115/124/1 116/125/1 112/10/1
f 116/125/1 117/126/1 112/10/1
f 117/126/1 118/127/1 112/10/1
f 118/127/1 111/128/1 112/10/1
f 119/7/5 122/129/5 121/23/5
f 122/129/5 123/130/5 121/23/5
f 123/130/5 124/131/5 121/23/5
f 124/131/5 125/132/5 121/23/5
f 125/132/5 126/133/5 121/23/5
f 126/133/5 127/134/5 121/23/5
f 127/134/5 120/135/5 121/23/5
f 128/20/5 131/136/5 130/137/5
f 131/136/5 132/138/5 130/137/5
f 132/138/5 133/139/5 130/137/5
f 133/139/5 134/140/5 130/137/5
f 134/140/5 135/141/5 130/137/5
f 135/141/5 136/142/5 130/137/5
f 136/142/5 129/143/5 130/137/5
f 129/8/35 113/144/35 110/2/35
f 136/145/36 114/146/36 113/144/36
f 135/147/37 115/124/37 114/146/37
f 134/148/38 116/149/38 115/124/38
f 133/139/39 117/150/39 116/149/39
f 132/138/40 118/151/40 117/150/40
f 131/136/41 111/27/41 118/151/41
f 120/152/42 104/114/42 101/6/42
f 127/153/43 105/116/43 104/114/43
f 126/154/44 106/117/44 105/116/44
f 125/155/45 107/156/45 106/117/45
f 124/131/46 108/157/46 107/156/46
f 123/130/47 109/158/47 108/157/47
f 122/129/48 102/1/48 109/158/48
f 2/159/4 120/152/4 101/6/4
f 145/160/49 4/161/49 142/162/49
f 142/162/50 7/163/50 141/164/50
f 141/164/51 10/165/51 144/166/51
f 12/74/52 149/167/52 143/168/52
f 149/167/53 16/169/53 151/170/53
f 151/170/54 18/171/54 150/172/54
f 150/172/55 21/173/55 159/174/55
f 159/174/56 23/175/56 157/176/56
f 157/176/57 26/177/57 158/178/57
f 158/178/58 30/179/58 160/180/58
f 33/181/59 169/182/59 161/183/59
f 169/182/60 36/75/60 168/184/60
f 168/184/61 39/185/61 170/186/61
f 170/186/62 41/187/62 167/188/62
f 167/188/63 45/189/63 172/190/63
f 172/190/64 47/191/64 171/192/64
f 47/191/65 165/193/65 171/192/65
f 50/194/66 163/195/66 165/193/66
f 54/196/67 164/197/67 163/195/67
f 56/198/68 166/199/68 164/197/68
f 59/63/69 162/200/69 166/199/69
f 62/201/70 155/202/70 156/203/70
f 64/204/71 153/205/71 155/202/71
f 68/206/72 154/207/72 153/205/72
f 70/208/73 146/209/73 154/207/73
f 73/210/74 148/211/74 146/209/74
f 76/212/75 147/213/75 148/211/75
f 79/214/76 152/215/76 147/213/76
f 138/216/77 82/217/77 137/218/77
f 85/219/78 140/220/78 137/218/78
f 88/221/79 139/222/79 140/220/79
f 91/223/80 145/224/80 139/222/80
f 23/225/6 1/226/6 70/227/6
f 110/2/1 112/10/1 32/9/1
f 32/9/1 31/34/1 110/2/1
f 31/34/1 43/3/1 110/2/1
f 43/3/1 46/36/1 103/115/1
f 103/115/1 102/1/1 43/3/1
f 65/228/1 66/229/1 2/159/1
f 2/159/1 101/6/1 63/5/1
f 101/6/1 103/115/1 44/230/1
f 2/159/1 63/5/1 65/228/1
f 103/115/1 46/36/1 44/230/1
f 44/230/1 57/231/1 101/6/1
f 57/231/1 58/232/1 101/6/1
f 58/232/1 60/233/1 101/6/1
f 60/233/1 61/4/1 101/6/1
f 110/2/2 102/1/2 119/7/2
f 111/11/1 5/234/1 13/235/1
f 5/234/1 9/236/1 11/237/1
f 13/235/1 5/234/1 11/237/1
f 13/235/1 14/238/1 111/11/1
f 14/238/1 15/239/1 111/11/1
f 15/239/1 17/240/1 111/11/1
f 17/240/1 8/15/1 111/11/1
f 8/15/1 29/17/1 111/11/1
f 29/17/1 32/9/1 111/11/1
f 78/12/3 93/56/3 43/13/3
f 8/15/4 67/241/4 80/16/4
f 74/19/5 75/242/5 3/26/5
f 75/242/5 77/243/5 3/26/5
f 3/26/5 128/20/5 74/19/5
f 128/20/5 130/137/5 81/44/5
f 81/44/5 80/16/5 128/20/5
f 80/16/5 67/241/5 128/20/5
f 67/241/5 69/244/5 128/20/5
f 69/244/5 71/245/5 128/20/5
f 71/245/5 72/18/5 128/20/5
f 121/23/5 120/152/5 92/21/5
f 120/152/5 6/96/5 24/246/5
f 24/246/5 6/96/5 22/247/5
f 6/96/5 20/248/5 22/247/5
f 24/246/5 25/249/5 120/152/5
f 25/249/5 27/250/5 120/152/5
f 27/250/5 28/251/5 120/152/5
f 28/251/5 19/24/5 120/152/5
f 19/24/5 92/21/5 120/152/5
f 19/24/6 57/112/6 44/25/6
f 3/26/6 5/70/6 111/27/6
f 31/14/7 42/58/7 83/57/7
f 42/58/8 40/60/8 84/59/8
f 40/60/9 38/62/9 86/61/9
f 38/62/10 37/217/10 87/63/10
f 37/64/11 35/66/11 89/65/11
f 35/66/12 34/68/12 90/67/12
f 34/68/13 29/17/13 80/16/13
f 3/26/14 77/71/14 9/69/14
f 77/71/15 75/73/15 11/72/15
f 75/73/16 74/75/16 13/74/16
f 74/75/17 72/78/17 14/76/17
f 72/78/18 71/80/18 15/79/18
f 71/80/19 69/82/19 17/81/19
f 69/82/20 67/241/20 8/15/20
f 93/56/21 100/55/21 48/83/21
f 100/55/22 99/54/22 49/84/22
f 99/54/23 98/86/23 51/85/23
f 98/86/24 97/88/24 52/87/24
f 97/88/25 96/91/25 53/89/25
f 96/91/26 95/93/26 55/92/26
f 95/93/27 92/21/27 44/25/27
f 2/94/28 66/97/28 20/95/28
f 66/97/29 65/99/29 22/98/29
f 65/99/30 63/252/30 24/100/30
f 63/101/31 61/103/31 25/102/31
f 144/253/32 143/254/32 25/102/32
f 143/254/32 27/111/32 25/102/32
f 25/102/32 61/103/32 145/105/32
f 142/255/32 25/102/32 145/105/32
f 61/103/32 60/106/32 138/256/32
f 61/103/32 138/256/32 137/257/32
f 141/258/32 144/253/32 25/102/32
f 142/255/32 141/258/32 25/102/32
f 61/103/32 137/257/32 140/259/32
f 61/103/32 140/259/32 139/104/32
f 152/260/33 138/256/33 60/106/33
f 60/106/33 58/261/33 154/107/33
f 58/261/33 156/262/33 155/263/33
f 58/261/33 155/263/33 153/264/33
f 147/265/33 152/260/33 60/106/33
f 148/266/33 147/265/33 60/106/33
f 58/261/33 153/264/33 154/107/33
f 146/108/33 148/266/33 60/106/33
f 160/267/81 161/268/81 28/269/81
f 28/269/33 27/111/33 157/110/33
f 27/111/81 143/254/81 149/270/81
f 27/111/33 149/270/33 151/271/33
f 158/272/33 160/267/33 28/269/33
f 157/110/33 158/272/33 28/269/33
f 27/111/33 151/271/33 150/273/33
f 27/111/33 150/273/33 159/109/33
f 156/262/34 58/261/34 57/112/34
f 19/24/34 28/269/34 161/268/34
f 19/24/34 161/268/34 169/274/34
f 162/275/34 156/262/34 57/112/34
f 166/276/34 162/275/34 57/112/34
f 19/24/34 169/274/34 168/277/34
f 19/24/34 168/277/34 170/278/34
f 164/279/34 166/276/34 57/112/34
f 163/280/34 164/279/34 57/112/34
f 19/24/34 170/278/34 167/281/34
f 19/24/34 167/281/34 172/282/34
f 165/283/34 163/280/34 57/112/34
f 19/24/82 172/282/82 171/113/82
f 171/113/82 165/283/82 57/112/82
f 119/7/5 121/23/5 94/22/5
f 94/22/5 93/56/5 119/7/5
f 93/56/5 78/12/5 119/7/5
f 78/12/5 81/44/5 130/137/5
f 130/137/5 129/8/5 78/12/5
f 129/8/35 136/145/35 113/144/35
f 136/145/36 135/147/36 114/146/36
f 135/147/37 134/148/37 115/124/37
f 134/148/38 133/139/38 116/149/38
f 133/139/39 132/138/39 117/150/39
f 132/138/40 131/136/40 118/151/40
f 131/136/41 128/20/41 111/27/41
f 120/152/42 127/153/42 104/114/42
f 127/153/43 126/154/43 105/116/43
f 126/154/44 125/155/44 106/117/44
f 125/155/45 124/131/45 107/156/45
f 124/131/46 123/130/46 108/157/46
f 123/130/47 122/129/47 109/158/47
f 122/129/48 119/7/48 102/1/48
f 2/159/4 6/96/4 120/152/4
f 145/160/49 1/284/49 4/161/49
f 142/162/50 4/161/50 7/163/50
f 141/164/51 7/163/51 10/165/51
f 143/168/52 144/166/52 12/74/52
f 144/166/52 10/165/52 12/74/52
f 149/167/53 12/74/53 16/169/53
f 151/170/54 16/169/54 18/171/54
f 150/172/55 18/171/55 21/173/55
f 159/174/56 21/173/56 23/175/56
f 157/176/57 23/175/57 26/177/57
f 158/178/58 26/177/58 30/179/58
f 161/183/59 160/180/59 33/181/59
f 160/180/59 30/179/59 33/181/59
f 169/182/60 33/181/60 36/75/60
f 168/184/61 36/75/61 39/185/61
f 170/186/62 39/185/62 41/187/62
f 167/188/63 41/187/63 45/189/63
f 172/190/64 45/189/64 47/191/64
f 47/191/65 50/194/65 165/193/65
f 50/194/66 54/196/66 163/195/66
f 54/196/67 56/198/67 164/197/67
f 56/198/68 59/63/68 166/199/68
f 59/63/69 62/201/69 162/200/69
f 156/203/70 162/200/70 62/201/70
f 62/201/70 64/204/70 155/202/70
f 64/204/71 68/206/71 153/205/71
f 68/206/72 70/208/72 154/207/72
f 70/208/73 73/210/73 146/209/73
f 73/210/74 76/212/74 148/211/74
f 76/212/75 79/214/75 147/213/75
f 79/214/76 82/217/76 152/215/76
f 152/215/77 82/217/77 138/216/77
f 82/217/77 85/219/77 137/218/77
f 85/219/78 88/221/78 140/220/78
f 88/221/79 91/223/79 139/222/79
f 91/223/80 1/285/80 145/224/80
f 70/227/6 68/286/6 59/287/6
f 68/286/6 64/288/6 59/287/6
f 64/288/6 62/289/6 59/287/6
f 59/287/6 56/290/6 54/291/6
f 54/291/6 50/292/6 47/226/6
f 47/226/6 45/293/6 41/294/6
f 41/294/6 39/295/6 36/296/6
f 36/296/6 33/297/6 30/298/6
f 30/298/6 26/299/6 36/296/6
f 26/299/6 23/225/6 36/296/6
f 23/225/6 21/299/6 18/298/6
f 18/298/6 16/297/6 23/225/6
f 16/297/6 12/296/6 23/225/6
f 12/296/6 10/295/6 7/294/6
f 7/294/6 4/293/6 1/226/6
f 1/226/6 91/292/6 88/291/6
f 88/291/6 85/290/6 82/287/6
f 82/287/6 79/289/6 70/227/6
f 79/289/6 76/288/6 70/227/6
f 76/288/6 73/286/6 70/227/6
f 59/287/6 54/291/6 70/227/6
f 54/291/6 47/226/6 70/227/6
f 47/226/6 41/294/6 23/225/6
f 41/294/6 36/296/6 23/225/6
f 12/296/6 7/294/6 23/225/6
f 7/294/6 1/226/6 23/225/6
f 1/226/6 88/291/6 70/227/6
f 88/291/6 82/287/6 70/227/6
f 70/227/6 47/226/6 23/225/6
